<?xml version="1.0" encoding="utf-8"?>
<!-- Generator: Adobe Illustrator 25.2.3, SVG Export Plug-In . SVG Version: 6.00 Build 0)  -->
<svg version="1.1" id="Layer_1" xmlns="http://www.w3.org/2000/svg" xmlns:xlink="http://www.w3.org/1999/xlink" x="0px" y="0px"
	 viewBox="0 0 85 85" style="enable-background:new 0 0 85 85;" xml:space="preserve">
<style type="text/css">
	.st0{fill:#F7B0C3;stroke:#2B2829;stroke-width:4;stroke-miterlimit:10;enable-background:new    ;}
	.st1{fill:#222222;}
</style>
<rect x="2" y="2" class="st0" width="81" height="81"/>
<g>
	<g id="kqEnyu_1_">
		<g>
			<path class="st1" d="M36.92,22.78c-1.69,0.51-3.38,0.85-4.99,1.44c-1.61,0.59-3.04,1.35-4.57,2.03
				c-0.76,0.34-1.27,0.93-0.76,1.78c0.51,0.76,1.1,0.59,1.86,0.25c9.39-4.82,18.78-4.82,28.16,0c0.76,0.42,1.44,0.59,1.95-0.25
				s-0.08-1.35-0.85-1.78c-2.71-1.52-5.58-2.54-8.54-3.13c-0.25-0.08-0.51-0.08-0.76-0.17c-0.08,0-0.08-0.08-0.17-0.08
				c0.25-1.35,0.59-1.61,1.86-1.44c3.3,0.42,6.43,1.27,9.39,2.79c1.78,0.93,3.13,2.28,3.98,4.06c2.11,4.48,3.55,9.13,4.48,13.96
				c0.51,2.96,0.76,5.92,1.1,8.88c0.17,1.18-0.25,2.2-1.01,3.04c-1.69,2.03-3.81,3.47-6.26,4.4c-2.2,0.76-4.48,1.18-6.68,1.78
				c-0.85,0.25-1.52-0.08-2.03-0.85c-0.51-0.85-1.1-1.61-1.69-2.37c1.61-0.68,3.21-1.18,4.74-1.86c1.27-0.59,2.45-1.44,3.64-2.2
				c0.68-0.42,0.85-1.1,0.34-1.78c-0.51-0.59-1.1-0.51-1.69-0.08c-9.13,5.75-18.69,5.84-28.5,1.86c-1.1-0.42-2.03-1.18-3.04-1.86
				c-0.68-0.42-1.27-0.51-1.78,0.17c-0.51,0.68-0.25,1.35,0.42,1.69c2.28,1.18,4.57,2.28,6.85,3.47c0.42,0.17,0.93,0.25,1.52,0.51
				c-0.76,1.01-1.44,2.03-2.2,2.88c-0.25,0.25-0.85,0.42-1.18,0.42c-4.14-0.51-8.03-1.69-11.42-4.23c-0.42-0.25-0.76-0.68-1.1-0.93
				c-1.44-1.35-2.03-2.88-1.86-4.91c0.59-7.27,2.2-14.21,4.99-20.97c1.18-2.79,3.04-4.82,5.92-5.75c2.54-0.85,5.24-1.52,7.87-2.11
				C36.16,21.08,36.5,21.34,36.92,22.78z M30.75,42.99c0.08,0.08,0.17,0.08,0.25,0.17c0,0.25,0,0.42,0,0.68
				c0.25,1.69,1.1,3.04,2.79,3.64c1.44,0.51,2.79,0.17,3.89-0.93c1.78-1.78,1.78-4.99,0-6.85c-1.61-1.61-4.14-1.61-5.5,0.17
				C31.51,40.79,31.25,41.97,30.75,42.99z M54,43.07c0-2.96-2.37-5.07-4.91-4.48c-1.78,0.42-3.21,2.45-3.13,4.57
				c0,2.2,1.35,4.06,3.21,4.48C51.72,48.15,54,46.03,54,43.07z"/>
		</g>
	</g>
</g>
</svg>
