<?xml version="1.0" encoding="utf-8"?>
<!-- Generator: Adobe Illustrator 25.2.3, SVG Export Plug-In . SVG Version: 6.00 Build 0)  -->
<svg version="1.1" id="Layer_1" xmlns="http://www.w3.org/2000/svg" xmlns:xlink="http://www.w3.org/1999/xlink" x="0px" y="0px"
	 viewBox="0 0 85 85" style="enable-background:new 0 0 85 85;" xml:space="preserve">
<style type="text/css">
	.st0{fill:#F7B0C3;stroke:#2B2829;stroke-width:4;stroke-miterlimit:10;enable-background:new    ;}
	.st1{fill:#222222;}
</style>
<rect x="2" y="2" class="st0" width="81" height="81"/>
<path class="st1" d="M22.44,24.41c5.93,5.76,11.67,9.54,19.09,10.33c0.52-1.88,0.84-3.68,1.5-5.34c2.48-6.3,9.3-8.6,15.07-5.44
	c2.12,1.16,4.63,1.59,7.38,2.49c0,0-0.4,1.11-0.88,2.43c1.06-0.15,2-0.27,3.4-0.47c-0.54,0.9-0.71,1.58-1.14,1.84
	c-3.15,1.96-3.8,4.94-4.28,8.43c-2.81,20.06-23.18,29.87-41.43,19.71c3.94-1.28,7.63-2.47,11.98-3.88
	c-7.74-4.43-8.81-6.03-6.06-8.13c-1.53-1.65-3.41-3.11-4.49-5.02c-0.76-1.35-4.3-3.28-0.13-5.12c0.28-0.12-0.5-2.23-0.49-3.42
	C22,30.36,22.23,27.87,22.44,24.41z"/>
</svg>
